<svg xmlns="http://www.w3.org/2000/svg" height="1200" width="1600" version="1.1" xmlns:xlink="http://www.w3.org/1999/xlink" xmlns:svgjs="http://svgjs.com/svgjs"><rect fill="#000000" width="1600" height="1200"></rect><g><path d="M452.78 168.76H903.93C908.18 168.76 912.4 169.6 916.34 171.23 920.27 172.86 923.85 175.25 926.86 178.26 929.87 181.27 932.26 184.85 933.89 188.78 935.52 192.72 936.36 196.93 936.36 201.19V550.5C936.36 554.76 935.52 558.97 933.89 562.91 932.26 566.84 929.87 570.42 926.86 573.43 923.85 576.44 920.27 578.83 916.34 580.46 912.4 582.09 908.18 582.93 903.93 582.93H452.78C448.52 582.93 444.3 582.09 440.37 580.46 436.43 578.83 432.86 576.44 429.85 573.43 426.83 570.42 424.44 566.84 422.81 562.91 421.19 558.97 420.35 554.76 420.35 550.5V201.19C420.35 196.93 421.19 192.72 422.81 188.78 424.44 184.85 426.83 181.27 429.85 178.26 432.86 175.25 436.43 172.86 440.37 171.23 444.3 169.6 448.52 168.76 452.78 168.76Z" fill="#ffffff" opacity="1" stroke-width="4" stroke="#000000"></path><path d="M493.66 295.89H634.51C638.82 295.89 642.95 297.61 645.99 300.65 649.04 303.7 650.75 307.83 650.76 312.14 650.75 316.45 649.04 320.58 645.99 323.62 642.95 326.67 638.82 328.38 634.51 328.39H493.66C489.35 328.38 485.22 326.67 482.18 323.62 479.13 320.58 477.41 316.45 477.41 312.14 477.41 307.83 479.13 303.7 482.18 300.65 485.22 297.61 489.35 295.89 493.66 295.89Z" fill="#ffc930" opacity="1" stroke-width="4" stroke="#000000"></path><path d="M493.66 363.06H576C580.31 363.07 584.44 364.78 587.49 367.83 590.53 370.87 592.25 375 592.25 379.31 592.25 383.62 590.53 387.75 587.49 390.8 584.44 393.84 580.31 395.56 576 395.56H493.66C489.35 395.56 485.22 393.84 482.18 390.8 479.13 387.75 477.41 383.62 477.41 379.31 477.41 375 479.13 370.87 482.18 367.83 485.22 364.78 489.35 363.07 493.66 363.06Z" fill="#ffc930" opacity="1" stroke-width="4" stroke="#000000"></path><path d="M630.17 363.06H656.18C660.49 363.07 664.61 364.78 667.66 367.83 670.71 370.87 672.42 375 672.43 379.31 672.42 383.62 670.71 387.75 667.66 390.8 664.61 393.84 660.49 395.56 656.18 395.56H630.17C625.87 395.56 621.74 393.84 618.69 390.8 615.64 387.75 613.93 383.62 613.92 379.31 613.93 375 615.64 370.87 618.69 367.83 621.74 364.78 625.87 363.07 630.17 363.06Z" fill="#ff206e" opacity="1" stroke-width="4" stroke="#000000"></path><path d="M493.66 430.23H513.88C518.19 430.24 522.32 431.95 525.37 435 528.42 438.05 530.13 442.18 530.14 446.49 530.13 450.79 528.42 454.92 525.37 457.97 522.32 461.02 518.19 462.73 513.88 462.74H493.66C489.35 462.73 485.22 461.02 482.18 457.97 479.13 454.92 477.41 450.79 477.41 446.49 477.41 442.18 479.13 438.05 482.18 435 485.22 431.95 489.35 430.24 493.66 430.23Z" fill="#ffc930" opacity="1" stroke-width="4" stroke="#000000"></path><path d="M568.06 430.23H689.4C693.71 430.24 697.84 431.95 700.89 435 703.93 438.05 705.65 442.18 705.65 446.49 705.65 450.79 703.93 454.92 700.89 457.97 697.84 461.02 693.71 462.73 689.4 462.74H568.06C563.75 462.73 559.62 461.02 556.57 457.97 553.53 454.92 551.81 450.79 551.81 446.49 551.81 442.18 553.53 438.05 556.57 435 559.62 431.95 563.75 430.24 568.06 430.23Z" fill="#ff206e" opacity="1" stroke-width="4" stroke="#000000"></path><path d="M743.58 430.23H847.59C851.89 430.24 856.02 431.95 859.07 435 862.12 438.05 863.83 442.18 863.84 446.49 863.83 450.79 862.12 454.92 859.07 457.97 856.02 461.02 851.89 462.73 847.59 462.74H743.58C739.27 462.73 735.14 461.02 732.09 457.97 729.04 454.92 727.33 450.79 727.32 446.49 727.33 442.18 729.04 438.05 732.09 435 735.14 431.95 739.27 430.24 743.58 430.23Z" fill="#61ccff" opacity="1" stroke-width="4" stroke="#000000"></path><path d="M493.66 497.41H558.67C562.98 497.41 567.1 499.13 570.15 502.17 573.2 505.22 574.91 509.35 574.92 513.66 574.91 517.97 573.2 522.1 570.15 525.14 567.1 528.19 562.98 529.9 558.67 529.91H493.66C489.35 529.9 485.22 528.19 482.18 525.14 479.13 522.1 477.41 517.97 477.41 513.66 477.41 509.35 479.13 505.22 482.18 502.17 485.22 499.13 489.35 497.41 493.66 497.41Z" fill="#ff206e" opacity="1" stroke-width="4" stroke="#000000"></path><path d="M612.84 497.41H627.29C631.59 497.41 635.72 499.13 638.77 502.17 641.82 505.22 643.53 509.35 643.54 513.66 643.53 517.97 641.82 522.1 638.77 525.14 635.72 528.19 631.59 529.9 627.29 529.91H612.84C608.53 529.9 604.4 528.19 601.35 525.14 598.31 522.1 596.59 517.97 596.59 513.66 596.59 509.35 598.31 505.22 601.35 502.17 604.4 499.13 608.53 497.41 612.84 497.41Z" fill="#ffc930" opacity="1" stroke-width="4" stroke="#000000"></path><path d="M681.46 497.41H767.41C771.72 497.41 775.85 499.13 778.9 502.17 781.94 505.22 783.66 509.35 783.66 513.66 783.66 517.97 781.94 522.1 778.9 525.14 775.85 528.19 771.72 529.9 767.41 529.91H681.46C677.15 529.9 673.02 528.19 669.97 525.14 666.93 522.1 665.21 517.97 665.21 513.66 665.21 509.35 666.93 505.22 669.97 502.17 673.02 499.13 677.15 497.41 681.46 497.41Z" fill="#ffc930" opacity="1" stroke-width="4" stroke="#000000"></path><path d="M452.78 168.76H903.93C908.18 168.76 912.4 169.6 916.34 171.23 920.27 172.86 923.85 175.25 926.86 178.26 929.87 181.27 932.26 184.85 933.89 188.78 935.52 192.72 936.36 196.93 936.36 201.19V235.21H420.35V201.19C420.35 196.93 421.19 192.72 422.81 188.78 424.44 184.85 426.83 181.27 429.85 178.26 432.86 175.25 436.43 172.86 440.37 171.23 444.3 169.6 448.52 168.76 452.78 168.76Z" fill="#ffc930" opacity="1" stroke-width="4" stroke="#000000"></path><path d="M888.69 216.51C896.5 216.51 902.84 210.17 902.84 202.35 902.84 194.53 896.5 188.19 888.69 188.19 880.87 188.19 874.53 194.53 874.53 202.35 874.53 210.17 880.87 216.51 888.69 216.51Z" stroke="#000000" stroke-width="4" stroke-linecap="round" stroke-linejoin="round" opacity="1" fill="none"></path><path d="M873.59 217.44L878.72 212.32" stroke="#000000" stroke-width="4" stroke-linecap="round" stroke-linejoin="round" opacity="1" fill="none"></path></g><g><path d="M701.04 587.21H626.64C626.64 587.21 618.01 631.17 643.88 654.48H718.28C692.41 631.17 701.04 587.21 701.04 587.21Z" fill="#ffffff" opacity="1" stroke-width="4" stroke="#000000"></path></g><g><path d="M635.86 850.83H658.58V967.48H635.86V850.83Z" fill="#ff206e" opacity="1" stroke-width="4" stroke="#000000"></path><path d="M658.58 882.85V872.03H635.86V888.13L658.58 882.85Z" fill="#ff206e00" opacity="0" stroke-width="4" stroke="#ffffff00"></path><path d="M620.83 854.41L672.71 854.41V877.13H620.83V854.41Z" fill="#ffc930" opacity="1" stroke-width="4" stroke="#000000"></path><path d="M672.71 854.41L620.92 854.41V871.49L672.71 860.67V854.41Z" fill="#ffc93000" opacity="0" stroke-width="4" stroke="#ffffff00"></path><path d="M621.28 959.43H673.16V982.15H621.28V959.43Z" fill="#ffc930" opacity="1" stroke-width="4" stroke="#000000"></path><path d="M762.79 844.03L787.75 702.6C790.79 685.43 779.34 671.56 762.17 671.56H655.18C638.01 671.56 621.72 685.43 618.68 702.6L593.73 844.03C593.01 847.25 594.98 850.47 598.2 851.19 598.73 851.28 599.27 851.37 599.81 851.37H754.21C758.5 851.28 762.08 848.23 762.79 844.03Z" fill="#ffc930" opacity="1" stroke-width="4" stroke="#000000"></path><path d="M517.96 842.87V843.23C517.96 849.4 522.97 854.41 529.14 854.41L751.43 854.41C757.6 854.41 762.61 849.4 762.61 843.23V842.87C762.61 836.7 757.6 831.69 751.43 831.69H529.14C522.97 831.69 517.96 836.7 517.96 842.87Z" fill="#ff206e" opacity="1" stroke-width="4" stroke="#000000"></path><path d="M717.71 1014.89V994.76C717.71 987.78 712.07 982.15 705.1 982.15H589.34C582.36 982.15 576.73 987.78 576.73 994.76V1014.89" stroke="#000000" stroke-width="4" stroke-linecap="round" stroke-linejoin="round" opacity="1" fill="none"></path><path d="M647.22 982.15V998.52" stroke="#000000" stroke-width="4" stroke-linecap="round" stroke-linejoin="round" opacity="1" fill="none"></path><path d="M717.44 1036.71C706.62 1036.71 697.85 1027.95 697.85 1017.12 697.85 1006.31 706.62 997.53 717.44 997.53 728.26 997.53 737.03 1006.31 737.03 1017.12 737.03 1027.95 728.26 1036.71 717.44 1036.71Z" fill="#ff206e" opacity="1" stroke-width="4" stroke="#000000"></path><path d="M717.44 1022.58C714.43 1022.58 711.98 1020.14 711.98 1017.12 711.98 1014.11 714.43 1011.67 717.44 1011.67 720.45 1011.67 722.9 1014.11 722.9 1017.12 722.9 1020.14 720.45 1022.58 717.44 1022.58Z" fill="#ffffff" opacity="1" stroke-width="4" stroke="#000000"></path><path d="M574.73 1036.59C563.96 1035.52 556.09 1025.93 557.16 1015.16 558.22 1004.4 567.82 996.53 578.58 997.6 589.35 998.67 597.21 1008.26 596.15 1019.03 595.09 1029.79 585.49 1037.65 574.73 1036.59Z" fill="#ff206e" opacity="1" stroke-width="4" stroke="#000000"></path><path d="M576.64 1022.58C573.63 1022.58 571.18 1020.14 571.18 1017.12 571.18 1014.11 573.63 1011.67 576.64 1011.67 579.65 1011.67 582.1 1014.11 582.1 1017.12 582.1 1020.14 579.65 1022.58 576.64 1022.58Z" fill="#ffffff" opacity="1" stroke-width="4" stroke="#000000"></path><path d="M647.58 1036.71C636.76 1036.71 627.99 1027.95 627.99 1017.12 627.99 1006.31 636.76 997.53 647.58 997.53 658.4 997.53 667.17 1006.31 667.17 1017.12 667.17 1027.95 658.4 1036.71 647.58 1036.71Z" fill="#ff206e" opacity="1" stroke-width="4" stroke="#000000"></path><path d="M647.58 1022.58C644.56 1022.58 642.12 1020.14 642.12 1017.12 642.12 1014.11 644.56 1011.67 647.58 1011.67 650.59 1011.67 653.03 1014.11 653.03 1017.12 653.03 1020.14 650.59 1022.58 647.58 1022.58Z" fill="#ffffff" opacity="1" stroke-width="4" stroke="#000000"></path><path d="M658.58 959.43H635.86" stroke="#000000" stroke-width="4" stroke-linecap="round" stroke-linejoin="round" opacity="1" fill="none"></path><path d="M658.13 879.01H636.39" stroke="#000000" stroke-width="4" stroke-linecap="round" stroke-linejoin="round" opacity="1" fill="none"></path><path d="M672.71 855.39L621.81 855.39" stroke="#000000" stroke-width="4" stroke-linecap="round" stroke-linejoin="round" opacity="1" fill="none"></path></g><g><path d="M1372.47 903.57C1383.77 903.57 1392.93 894.4 1392.93 883.1 1392.93 871.8 1383.77 862.63 1372.47 862.63 1361.16 862.63 1352 871.8 1352 883.1 1352 894.4 1361.16 903.57 1372.47 903.57Z" fill="#ff206e" opacity="1" stroke-width="4" stroke="#000000"></path></g><g><path d="M293.42 402.69C300.98 402.69 307.11 396.56 307.11 389 307.11 381.44 300.98 375.31 293.42 375.31 285.86 375.31 279.73 381.44 279.73 389 279.73 396.56 285.86 402.69 293.42 402.69Z" fill="#ff206e" opacity="1" stroke-width="4" stroke="#000000"></path></g><g><path d="M278.26 618.21L266.43 664.48 255.99 620.32 190.48 644.29 244.89 602.58 202.62 574.17 252.69 580.24 257.12 529.87 273.02 577.97 322.03 555.17 289.42 597.71 324.27 630.95 278.26 618.21Z" fill="#ffffff" opacity="1" stroke-width="4" stroke="#000000"></path></g><g><path d="M873.66 713.37H827.6L815.08 645.61C815.08 645.53 815.08 645.53 815.16 645.53H886.19C886.26 645.53 886.26 645.61 886.26 645.61L873.66 713.37Z" fill="#ff206e" opacity="1" stroke-width="4" stroke="#000000"></path><path d="M873.66 713.37H858.65L861.6 645.53H886.19C886.26 645.53 886.26 645.61 886.26 645.61L873.66 713.37Z" fill="#ff206e00" opacity="0" stroke-width="4" stroke="#ffffff00"></path><path d="M886.11 645.53C886.19 645.53 886.19 645.61 886.19 645.69 885.17 647.09 874.67 660.94 850.63 660.94 826.59 660.94 816.09 647.09 815.08 645.69 815.08 645.61 815.08 645.53 815.16 645.53H886.11Z" fill="#000000" opacity="1" stroke-width="4" stroke="#000000"></path><path d="M896.61 691.2C904.69 691.2 911.24 684.66 911.24 676.57 911.24 668.5 904.69 661.95 896.61 661.95 888.54 661.95 881.98 668.5 881.98 676.57 881.98 684.66 888.54 691.2 896.61 691.2Z" stroke="#000000" stroke-width="4" stroke-linecap="round" stroke-linejoin="round" opacity="1" fill="none"></path></g><g><path d="M1416.48 682.6L1380.82 642.78 1398.31 691.16 1357.17 703.42 1401.05 713.53 1394.66 760 1420.02 720.25 1453.15 749.86 1434.62 709.76 1476.93 697.19 1431.33 689.18 1444.12 645.34 1416.48 682.6Z" fill="#ffc930" opacity="1" stroke-width="4" stroke="#000000"></path></g><g><path d="M1364.48 450.88C1377.01 450.88 1387.16 440.72 1387.16 428.2 1387.16 415.68 1377.01 405.52 1364.48 405.52 1351.96 405.52 1341.81 415.68 1341.81 428.2 1341.81 440.72 1351.96 450.88 1364.48 450.88Z" fill="#61ccff" opacity="1" stroke-width="4" stroke="#000000"></path></g><g><path d="M236.87 844C247.4 844 255.94 835.46 255.94 824.93 255.94 814.39 247.4 805.85 236.87 805.85 226.34 805.85 217.8 814.39 217.8 824.93 217.8 835.46 226.34 844 236.87 844Z" fill="#61ccff" opacity="1" stroke-width="4" stroke="#000000"></path></g><g><path d="M422.36 679.96C407.1 679.96 391.33 667.54 387.21 652.27L358.43 544.83C356.39 537.22 357.5 530.12 361.55 524.84 365.4 519.81 371.52 517.04 378.76 517.04H551.22C566.5 517.04 582.27 529.5 586.37 544.82L615.16 652.17C617.16 659.8 616.02 666.92 611.94 672.21 608.09 677.21 602.01 679.96 594.83 679.96H422.36Z" fill="#61ccff" opacity="1" stroke-width="4" stroke="#000000"></path><path d="M516.01 679.96C515.95 679.6 515.91 679.23 515.9 678.86 515.88 678.5 515.86 678.14 515.81 677.8 514.7 666.71 507.49 657.68 499.73 657.68 498.27 657.7 496.84 658.02 495.51 658.64 494.19 659.25 493.02 660.15 492.07 661.25 488.65 665 486.98 671.18 487.59 677.79L487.84 679.93 468.54 679.96 464.24 635.39 531.09 635.36 535.48 679.96H516.01Z" fill="#61ccff00" opacity="0" stroke-width="4" stroke="#ffffff00"></path><path d="M442.84 714.23L463.89 635.38 530.83 635.36 509.69 714.23H442.84ZM491.25 657.68C483.52 657.68 474.81 666.71 471.82 677.8 470.03 684.47 470.67 690.69 473.55 694.45 474.36 695.54 475.41 696.42 476.62 697.02 477.84 697.62 479.18 697.92 480.54 697.9 488.31 697.9 497.06 688.88 500.05 677.79 501.8 671.1 501.12 664.87 498.23 661.13 497.42 660.04 496.37 659.16 495.15 658.56 493.94 657.97 492.6 657.66 491.25 657.68Z" fill="#ffc930" opacity="1" stroke-width="4" stroke="#000000"></path><path d="M457.23 558.1L461.43 573.87" stroke="#000000" stroke-width="4" stroke-linecap="round" stroke-linejoin="round" opacity="1" fill="none"></path><path d="M476.94 558.1L481.14 573.87" stroke="#000000" stroke-width="4" stroke-linecap="round" stroke-linejoin="round" opacity="1" fill="none"></path><path d="M496.64 558.1L500.84 573.87" stroke="#000000" stroke-width="4" stroke-linecap="round" stroke-linejoin="round" opacity="1" fill="none"></path><path d="M540.08 714.23C540.08 712.65 540.38 711.09 540.98 709.63 541.58 708.17 542.47 706.84 543.58 705.72 544.7 704.6 546.02 703.71 547.48 703.11 548.94 702.5 550.5 702.19 552.08 702.19H695.16C698.34 702.19 701.4 703.46 703.65 705.71 705.91 707.97 707.17 711.02 707.18 714.21V714.23H540.08Z" fill="#61ccff" opacity="1" stroke-width="4" stroke="#000000"></path><path d="M650.61 714.23C650.6 712.65 650.91 711.09 651.51 709.63 652.11 708.17 652.99 706.84 654.1 705.72 655.22 704.6 656.54 703.71 658 703.11 659.46 702.5 661.02 702.19 662.6 702.19H695.16C698.34 702.19 701.4 703.46 703.65 705.71 705.91 707.97 707.17 711.02 707.18 714.21V714.23H650.61Z" fill="#ffc930" opacity="1" stroke-width="4" stroke="#000000"></path></g><g><path d="M894.27 713.52H399.51C376.04 713.52 357.06 732.5 357.06 755.97V1038.36C357.06 1045.46 362.85 1051.25 369.94 1051.25 370.04 1051.25 370.04 1051.25 370.14 1051.25 377.24 1050.95 382.83 1045.06 382.73 1037.96V762.47C382.73 749.68 393.12 739.29 405.9 739.29H887.78C900.56 739.29 910.95 749.68 910.95 762.47V1037.86C910.85 1044.96 916.44 1050.85 923.54 1051.15 930.63 1051.35 936.52 1045.66 936.72 1038.56 936.72 1038.46 936.72 1038.36 936.72 1038.26V755.97C936.72 732.5 917.74 713.52 894.27 713.52Z" fill="#ff206e" opacity="1" stroke-width="4" stroke="#000000"></path></g><g><path d="M989.49 611.2C992.97 611.2 996.32 612.58 998.77 615.04 1001.24 617.51 1002.62 620.85 1002.62 624.33V650.51C1002.66 652.24 1002.37 653.95 1001.75 655.56 1001.13 657.17 1000.19 658.65 999.01 659.89 997.81 661.14 996.39 662.15 994.82 662.85 993.24 663.54 991.54 663.93 989.81 663.97 988.09 664.01 986.37 663.71 984.76 663.09 983.15 662.47 981.68 661.54 980.44 660.35 979.18 659.16 978.18 657.74 977.48 656.16 976.78 654.58 976.4 652.88 976.36 651.16V624.33C976.36 620.85 977.74 617.51 980.2 615.04 982.67 612.58 986.01 611.2 989.49 611.2ZM989.49 607.97C985.16 607.98 980.99 609.7 977.93 612.77 974.86 615.83 973.14 619.99 973.14 624.33V624.33 650.51C973.14 654.85 974.86 659.01 977.93 662.08 980.99 665.14 985.16 666.87 989.49 666.87V666.87C993.83 666.87 997.98 665.14 1001.05 662.08 1004.11 659.01 1005.84 654.85 1005.85 650.51V624.33C1005.84 619.99 1004.11 615.83 1001.05 612.77 997.98 609.7 993.83 607.98 989.49 607.97V607.97Z" fill="#423615" opacity="1" stroke-width="4" stroke="#000000"></path><path d="M964.35 636.98H1014.63C1016.92 636.98 1019.11 637.89 1020.72 639.51 1022.34 641.12 1023.25 643.31 1023.25 645.6V675.57C1023.24 680.93 1021.11 686.07 1017.32 689.87 1013.53 693.66 1008.38 695.79 1003.03 695.79H975.88C970.51 695.79 965.37 693.66 961.58 689.87 957.79 686.07 955.65 680.93 955.65 675.57V645.6C955.68 643.31 956.62 641.12 958.25 639.51 959.87 637.9 962.07 636.99 964.35 636.98Z" fill="#ffc930" opacity="1" stroke-width="4" stroke="#000000"></path><path d="M989.49 657.36C990.42 657.36 991.32 657.64 992.09 658.15 992.85 658.66 993.46 659.39 993.81 660.25 994.16 661.1 994.25 662.04 994.08 662.95 993.89 663.85 993.45 664.69 992.79 665.34 992.14 665.99 991.3 666.44 990.4 666.62 989.49 666.8 988.56 666.71 987.7 666.35 986.85 666 986.12 665.4 985.61 664.63 985.09 663.86 984.82 662.96 984.82 662.04 984.83 660.8 985.33 659.62 986.2 658.75 987.07 657.87 988.26 657.38 989.49 657.36ZM989.49 654.14C987.93 654.14 986.41 654.6 985.1 655.47 983.8 656.34 982.8 657.57 982.19 659.01 981.6 660.46 981.44 662.04 981.75 663.58 982.05 665.11 982.8 666.51 983.91 667.62 985.01 668.72 986.42 669.47 987.95 669.78 989.48 670.08 991.07 669.93 992.51 669.33 993.95 668.73 995.19 667.72 996.06 666.42 996.92 665.12 997.39 663.6 997.39 662.04 997.38 659.94 996.55 657.94 995.07 656.46 993.59 654.98 991.59 654.14 989.49 654.14Z" fill="#423615" opacity="1" stroke-width="4" stroke="#000000"></path><path d="M989.33 668.64V675.89" stroke="#000000" stroke-width="4" stroke-linecap="round" stroke-linejoin="round" opacity="1" fill="none"></path></g><g><path d="M1162.6 1048.56C1167.05 1027.71 1169.46 1006.59 1170.08 985.3H1078.66C1078.75 993.41 1078.84 1000.89 1078.49 1007.57L1106.82 1069.59 1162.6 1048.56Z" fill="#ffb980" opacity="1" stroke-width="4" stroke="#000000"></path><path d="M1246.53 1070.75C1247.69 1071.1 1306.76 1049.01 1306.76 1049.01 1309.08 1027.89 1310.51 1006.33 1308.46 985.3H1215.88C1217.22 993.5 1218.55 1001.16 1219.09 1008.02 1219.09 1008.02 1244.3 1070.12 1246.53 1070.75Z" fill="#ffb980" opacity="1" stroke-width="4" stroke="#000000"></path><path d="M1306.14 962.13C1305.34 956.16 1304.54 950.55 1303.65 945.2 1293.93 885.77 1281.01 865.99 1278.52 816.89 1275.85 763.43 1290.1 690.37 1258.92 606.97H1207.33C1207.33 606.88 1207.24 606.7 1207.24 606.61H1123.48C1123.48 606.61 1068.24 743.83 1072.69 861.45 1073.76 890.4 1075.72 919.18 1077.06 945.2 1077.86 960.26 1078.49 974.43 1078.66 987.08H1170.08C1170.35 977.72 1170.26 967.83 1169.73 957.68 1169.55 953.22 1169.37 949.03 1169.1 945.2 1166.16 900.21 1162.69 890.94 1161.8 850.75 1161.44 832.31 1169.55 808.7 1179.53 782.32 1183.27 813.24 1187.28 842.29 1191.2 863.23 1196.46 891.12 1202.78 919.45 1208.13 945.2 1211.25 960.17 1214.1 974.34 1216.15 987.08H1308.55C1308.01 978.97 1307.3 970.6 1306.14 962.13Z" fill="#ff206e" opacity="1" stroke-width="4" stroke="#000000"></path><path d="M1169.19 811.28L1179.71 781.43C1174.72 746.24 1172.4 716.12 1170.44 699.99 1170.44 699.99 1156.09 688.77 1161.8 781.16 1162.87 810.3 1169.19 811.28 1169.19 811.28Z" fill="#ff206e00" opacity="0" stroke-width="4" stroke="#ffffff00"></path><path d="M1140.68 1048.56C1133.55 1048.56 1126.51 1050.61 1120.45 1054.35L1110.47 1060.59C1108.51 1061.75 1106.02 1061.21 1104.86 1059.25 1104.24 1058.27 1104.06 1057.02 1104.41 1055.87L1113.86 1024.67C1116 1017.63 1111.99 1010.15 1104.86 1008.01 1103.61 1007.65 1102.36 1007.48 1101.12 1007.48H1078.49C1077.95 1020.31 1076.53 1030.47 1073.67 1036.89 1063.43 1059.97 1039.82 1059.16 1031.8 1081.44L1033.04 1083.84 1152.89 1082.51 1153.69 1081.44C1157.25 1070.66 1160.19 1059.61 1162.6 1048.47H1140.68V1048.56Z" fill="#61ccff" opacity="1" stroke-width="4" stroke="#000000"></path><path d="M1066.95 1048.03L1076.26 1056.58" stroke="#000000" stroke-width="4" stroke-linecap="round" stroke-linejoin="round" opacity="1" fill="none"></path><path d="M1057.09 1056.18L1067.35 1065.49" stroke="#000000" stroke-width="4" stroke-linecap="round" stroke-linejoin="round" opacity="1" fill="none"></path><path d="M1029.12 1096.59L1147.63 1097.48C1147.63 1097.48 1150.21 1091.77 1153.69 1081.44H1031.8C1030.1 1086.34 1029.21 1091.42 1029.12 1096.59Z" fill="#ffc930" opacity="1" stroke-width="4" stroke="#000000"></path><path d="M1276.83 682.79C1274.06 658.73 1268.81 633.34 1258.92 606.87H1219.27C1219.27 606.96 1249.12 647.15 1276.83 682.79Z" fill="#ff206e00" opacity="0" stroke-width="4" stroke="#ffffff00"></path><path d="M1306.76 1049.01H1282.35C1275.22 1049.01 1268.18 1051.05 1262.12 1054.8L1252.15 1061.03C1250.19 1062.19 1247.69 1061.66 1246.53 1059.7 1245.91 1058.72 1245.73 1057.47 1246.09 1056.31L1255.53 1025.12C1257.67 1018.08 1253.66 1010.59 1246.53 1008.46 1245.28 1008.1 1244.04 1007.92 1242.7 1007.92H1219.18C1220.43 1021.91 1220.07 1032.88 1217.04 1039.56 1206.79 1062.64 1187.64 1059.16 1179.62 1081.44V1081.62L1301.69 1081.97C1303.29 1073.87 1305.34 1062.19 1306.76 1049.01Z" fill="#61ccff" opacity="1" stroke-width="4" stroke="#000000"></path><path d="M1179.62 1081.44C1177.92 1086.34 1177.03 1091.42 1176.94 1096.59L1298.12 1097.48C1298.12 1097.48 1299.73 1091.6 1301.78 1081.44H1179.62Z" fill="#ffc930" opacity="1" stroke-width="4" stroke="#000000"></path><path d="M1170.35 699C1173.02 725.91 1176.14 754.51 1179.53 782.4" stroke="#000000" stroke-width="4" stroke-linecap="round" stroke-linejoin="round" opacity="1" fill="none"></path><path d="M1212.67 1047.95L1222.39 1056.58" stroke="#000000" stroke-width="4" stroke-linecap="round" stroke-linejoin="round" opacity="1" fill="none"></path><path d="M1203.96 1056.56L1213.48 1065.49" stroke="#000000" stroke-width="4" stroke-linecap="round" stroke-linejoin="round" opacity="1" fill="none"></path><path d="M1175.43 469.03C1199.66 471.97 1230.49 454.06 1240.47 428.85 1233.08 426.08 1225.41 424.12 1217.66 423.06 1220.87 407.73 1226.57 373.34 1228.44 363.53 1231.12 349.28 1231.3 325.67 1215.7 312.75 1200.11 299.83 1180.51 293.68 1160.01 301.7 1140.68 309.27 1135.87 320.14 1127.94 343.75 1127.94 343.75 1119.03 344.65 1118.14 348.21 1117.16 352.04 1122.59 358.9 1122.59 358.9 1116.35 378.5 1116.35 388.31 1123.04 397.66 1130.08 407.55 1147.54 407.91 1154.67 406.13L1151.28 423.06 1126.96 424.39C1135.24 449.7 1154.22 466.54 1175.43 469.03Z" fill="#ffb980" opacity="1" stroke-width="4" stroke="#000000"></path><path d="M1164.11 296C1147.36 278.72 1117.51 289.32 1125.26 311.69 1133.28 334.85 1166.25 333.96 1165.53 335.09L1163.49 349.11C1161.71 359.09 1152.17 365.77 1142.19 363.99 1141.75 363.9 1141.21 363.81 1140.77 363.72L1122.59 358.91C1116.35 378.51 1116.35 389.83 1123.04 399.18 1130.08 409.08 1147.54 409.43 1154.67 407.65L1158.05 406.76C1165.81 404.62 1171.6 398.2 1173.02 390.27L1176.94 366.04C1176.94 366.04 1197.44 343.76 1209.91 357.13 1222.21 370.32 1196.55 392.77 1197.09 393 1206.35 403.46 1220.87 407.65 1220.87 407.65 1224.35 390.72 1228.62 369.25 1229.96 362.03 1232.63 347.77 1237.53 319.71 1221.94 306.79 1207.42 294.76 1183.89 290.03 1164.11 296Z" fill="#868384" opacity="1" stroke-width="4" stroke="#000000"></path><path d="M1189.42 376.73L1196.55 369.6" stroke="#000000" stroke-width="4" stroke-linecap="round" stroke-linejoin="round" opacity="1" fill="none"></path><path d="M1142.64 347.14C1144.26 347.14 1145.58 345.83 1145.58 344.2 1145.58 342.58 1144.26 341.26 1142.64 341.26 1141.02 341.26 1139.7 342.58 1139.7 344.2 1139.7 345.83 1141.02 347.14 1142.64 347.14Z" fill="#171314" opacity="1" stroke-width="4" stroke="#000000"></path><path d="M1127.94 374.06C1130.88 374.68 1134 373.7 1135.96 371.38" stroke="#000000" stroke-width="4" stroke-linecap="round" stroke-linejoin="round" opacity="1" fill="none"></path><path d="M1123.48 606.61C1123.48 606.61 1119.74 615.88 1114.3 631.56H1154.67V606.61H1123.48Z" fill="#61ccff" opacity="1" stroke-width="4" stroke="#000000"></path><path d="M1266.94 631.56C1264.71 623.45 1262.04 615.26 1258.92 606.97H1207.33C1207.33 606.88 1207.24 606.79 1207.24 606.61H1187.64V631.56H1266.94Z" fill="#61ccff" opacity="1" stroke-width="4" stroke="#000000"></path><path d="M1154.4 606.61L1187.81 606.52 1187.9 631.55H1154.4V606.61Z" fill="#ffffff" opacity="1" stroke-width="4" stroke="#000000"></path><path d="M1317.9 515.99C1317.9 515.99 1292.78 467.61 1266.05 443.55 1258.38 436.69 1248.94 431.97 1240.47 428.85 1224.35 452.19 1200.91 465.91 1176.59 462.97 1155.38 460.39 1137.83 445.69 1126.96 424.3L1067.44 427.42 1054.87 428.13 1064.14 512.25C1067.88 512.6 1071.62 512.87 1075.28 513.14 1096.84 514.56 1114.48 514.47 1118.23 514.83L1108.25 608.21 1275.94 607.5 1250.1 559.38 1317.9 515.99Z" fill="#ffc930" opacity="1" stroke-width="4" stroke="#000000"></path><path d="M1095.77 514.12C1107.09 514.47 1115.64 514.65 1118.14 514.83L1119.74 494.96 1095.77 514.12Z" fill="#ffc93000" opacity="0" stroke-width="4" stroke="#ffffff00"></path><path d="M1249.47 607.41L1274.33 606.87 1236.37 533.9 1249.47 607.41Z" fill="#ffc93000" opacity="0" stroke-width="4" stroke="#ffffff00"></path><path d="M1118.14 514.84L1119.92 492.56" stroke="#000000" stroke-width="4" stroke-linecap="round" stroke-linejoin="round" opacity="1" fill="none"></path><path d="M1317.72 515.73C1317.72 515.73 1343.56 562.06 1333.76 591.47 1323.96 620.87 1277.63 652.06 1258.03 666.31 1258.03 666.31 1255.35 678.79 1246.44 697.5 1246.44 697.5 1252.68 735.81 1246.44 739.38 1240.83 742.58 1233.97 714.43 1234.14 718.03 1233.52 721.97 1233.08 758.09 1218.82 750.96 1218.82 750.96 1212.58 758.98 1206.35 751.85 1206.35 751.85 1200.11 755.41 1197.44 743.83 1195.12 733.94 1193.87 709.08 1196.55 689.48 1198.77 673.53 1209.29 645.02 1225.95 624.43 1241.1 605.72 1261.59 582.56 1261.59 582.56L1249.92 559.21 1317.72 515.73Z" fill="#ffb980" opacity="1" stroke-width="4" stroke="#000000"></path><path d="M1261.59 582.56L1270.5 571.86" stroke="#000000" stroke-width="4" stroke-linecap="round" stroke-linejoin="round" opacity="1" fill="none"></path><path d="M1206.35 751.85C1206.35 751.85 1204.56 727.79 1206.35 704.63" stroke="#000000" stroke-width="4" stroke-linecap="round" stroke-linejoin="round" opacity="1" fill="none"></path><path d="M1218.82 750.96C1218.82 750.96 1218.82 728.68 1220.6 704.63" stroke="#000000" stroke-width="4" stroke-linecap="round" stroke-linejoin="round" opacity="1" fill="none"></path><path d="M1233.26 701.77L1234.3 718.08" stroke="#000000" stroke-width="4" stroke-linecap="round" stroke-linejoin="round" opacity="1" fill="none"></path><path d="M1034.38 429.29C1034.38 429.29 1025.92 385.01 1013.89 341.08 998.83 285.93 979.49 230.68 967.55 234.16 961.85 235.85 965.77 251.98 972.9 276.04 965.77 271.58 957.75 275.15 957.75 283.16 947.95 279.6 945.28 288.51 945.28 292.97 937.26 294.75 937.26 306.33 937.26 313.46 937.26 319.7 940.82 324.15 946.17 324.15 946.7 335.11 947.06 345.54 955.97 352.66 953.3 453.35 977.09 483.11 991.61 493.45 1007.83 504.76 1038.03 509.84 1065.03 512.25L1055.76 428.13 1034.38 429.29Z" fill="#ffb980" opacity="1" stroke-width="4" stroke="#000000"></path><path d="M1034.38 429.3L1037.05 441.78" stroke="#000000" stroke-width="4" stroke-linecap="round" stroke-linejoin="round" opacity="1" fill="none"></path><path d="M945.28 292.98C947.06 303.67 949.56 313.47 956.86 314.36 963.99 315.25 964.88 304.56 964.88 304.56" stroke="#000000" stroke-width="4" stroke-linecap="round" stroke-linejoin="round" opacity="1" fill="none"></path><path d="M946.17 324.16C949.73 322.38 952.41 318.81 952.41 313.47" stroke="#000000" stroke-width="4" stroke-linecap="round" stroke-linejoin="round" opacity="1" fill="none"></path><path d="M1004.26 308.65C996.42 302.5 976.46 292.97 966.66 292.08 955.97 291.1 965.77 309.9 977.35 315.24 972.37 325.13 970.85 336.45 972.9 347.32" stroke="#000000" stroke-width="4" stroke-linecap="round" stroke-linejoin="round" opacity="1" fill="none"></path><path d="M957.75 283.17C957.75 286.74 958.64 292.08 961.32 294.76" stroke="#000000" stroke-width="4" stroke-linecap="round" stroke-linejoin="round" opacity="1" fill="none"></path><path d="M972.9 276.05C973.7 278.81 975.13 280.77 976.11 282.91" stroke="#000000" stroke-width="4" stroke-linecap="round" stroke-linejoin="round" opacity="1" fill="none"></path><path d="M1232.81 525.53L1249.74 558.86" stroke="#000000" stroke-width="4" stroke-linecap="round" stroke-linejoin="round" opacity="1" fill="none"></path></g><g><path d="M503 922.65C493.6 919.3 477.24 914.86 469.54 924.5 459.93 936.59 475.64 950.62 482.64 934.62 489.83 912.69 463.32 899.91 470.03 887.08 477 873.4 502.22 887.11 517.31 881.72 529.84 877.24 530.16 861.99 530.16 861.99" stroke="#000000" stroke-width="4" stroke-linecap="round" opacity="1" fill="none"></path></g><g><path d="M1131.88 184.94L1137.97 125.59" stroke="#000000" stroke-width="4" stroke-linecap="round" stroke-linejoin="round" opacity="1" fill="none"></path><path d="M1081.66 247.33L1043.62 165.16" stroke="#000000" stroke-width="4" stroke-linecap="round" stroke-linejoin="round" opacity="1" fill="none"></path><path d="M1027.95 269.24L988.38 243.37" stroke="#000000" stroke-width="4" stroke-linecap="round" stroke-linejoin="round" opacity="1" fill="none"></path></g></svg>